<?xml version="1.0" encoding="UTF-8" standalone="no"?>
<!-- Created with Inkscape (http://www.inkscape.org/) -->

<svg
   xmlns:dc="http://purl.org/dc/elements/1.1/"
   xmlns:cc="http://creativecommons.org/ns#"
   xmlns:rdf="http://www.w3.org/1999/02/22-rdf-syntax-ns#"
   xmlns:svg="http://www.w3.org/2000/svg"
   xmlns="http://www.w3.org/2000/svg"
   xmlns:xlink="http://www.w3.org/1999/xlink"
   xmlns:sodipodi="http://sodipodi.sourceforge.net/DTD/sodipodi-0.dtd"
   xmlns:inkscape="http://www.inkscape.org/namespaces/inkscape"
   width="80"
   height="30"
   viewBox="0 0 21.166666 7.9375002"
   version="1.1"
   id="svg8"
   inkscape:version="0.92.4 5da689c313, 2019-01-14"
   sodipodi:docname="brick.svg"
   inkscape:export-filename="/home/marko/Projects/game.dev/bricks/public/assets/images/brick-black-damage.png"
   inkscape:export-xdpi="96"
   inkscape:export-ydpi="96">
  <defs
     id="defs2">
    <linearGradient
       inkscape:collect="always"
       id="linearGradient825">
      <stop
         style="stop-color:#ffffff;stop-opacity:0.50840336"
         offset="0"
         id="stop821" />
      <stop
         style="stop-color:#ffffff;stop-opacity:0;"
         offset="1"
         id="stop823" />
    </linearGradient>
    <linearGradient
       inkscape:collect="always"
       xlink:href="#linearGradient825"
       id="linearGradient827"
       x1="8.0067539"
       y1="289.38281"
       x2="9.5942535"
       y2="294.40005"
       gradientUnits="userSpaceOnUse" />
    <linearGradient
       inkscape:collect="always"
       xlink:href="#linearGradient825"
       id="linearGradient832"
       gradientUnits="userSpaceOnUse"
       x1="8.0067539"
       y1="289.38281"
       x2="9.5942535"
       y2="294.40005"
       gradientTransform="matrix(-1,0,0,1,21.166668,1.1588673e-5)" />
  </defs>
  <sodipodi:namedview
     id="base"
     pagecolor="#ffffff"
     bordercolor="#666666"
     borderopacity="1.0"
     inkscape:pageopacity="0.0"
     inkscape:pageshadow="2"
     inkscape:zoom="16"
     inkscape:cx="36.23801"
     inkscape:cy="5.4568641"
     inkscape:document-units="px"
     inkscape:current-layer="layer1"
     showgrid="false"
     units="px"
     inkscape:showpageshadow="false"
     showborder="false"
     inkscape:window-width="1920"
     inkscape:window-height="1046"
     inkscape:window-x="0"
     inkscape:window-y="34"
     inkscape:window-maximized="1" />
  <metadata
     id="metadata5">
    <rdf:RDF>
      <cc:Work
         rdf:about="">
        <dc:format>image/svg+xml</dc:format>
        <dc:type
           rdf:resource="http://purl.org/dc/dcmitype/StillImage" />
        <dc:title />
      </cc:Work>
    </rdf:RDF>
  </metadata>
  <g
     inkscape:label="Layer 1"
     inkscape:groupmode="layer"
     id="layer1"
     transform="translate(0,-289.06248)">
    <rect
       style="fill:#1e1e1e;fill-opacity:1;stroke-width:0.26458333;stroke:none;stroke-opacity:0.47111112;stroke-miterlimit:4;stroke-dasharray:none"
       id="rect815"
       width="20.637501"
       height="7.4083333"
       x="0.26458332"
       y="289.32706"
       rx="0.79374999"
       ry="0.79374999" />
    <path
       style="fill:url(#linearGradient827);fill-opacity:1;stroke:none;stroke-width:0.2000062;stroke-miterlimit:4;stroke-dasharray:none;stroke-opacity:0.97899158;opacity:0.6"
       d="M 1.0583333,289.32706 H 20.108334 c 0.439738,0 0.79375,0.35401 0.79375,0.79375 v 0.52916 c 0,0.43974 -0.370055,0.67606 -0.79375,0.79375 l -19.0500007,5.29167 c -0.42369495,0.11769 -0.79374998,-0.35401 -0.79374998,-0.79375 v -5.82083 c 0,-0.43974 0.35401249,-0.79375 0.79374998,-0.79375 z"
       id="rect819"
       inkscape:connector-curvature="0"
       sodipodi:nodetypes="sssssssss" />
    <path
       sodipodi:nodetypes="sssssssss"
       inkscape:connector-curvature="0"
       id="path830"
       d="M 20.108334,289.32706 H 1.0583333 c -0.43973798,0 -0.79374998,0.35401 -0.79374998,0.79375 v 0.52916 c 0,0.43974 0.370055,0.67606 0.79374998,0.79375 l 19.0500007,5.29167 c 0.423695,0.11769 0.79375,-0.35401 0.79375,-0.79375 v -5.82083 c 0,-0.43974 -0.354012,-0.79375 -0.79375,-0.79375 z"
       style="opacity:0.6;fill:url(#linearGradient832);fill-opacity:1;stroke:none;stroke-width:0.2000062;stroke-miterlimit:4;stroke-dasharray:none;stroke-opacity:0.97899158" />
    <path
       style="fill:none;stroke:#cbcbcb;stroke-width:0.26458332;stroke-linecap:round;stroke-linejoin:miter;stroke-miterlimit:4;stroke-dasharray:none;stroke-opacity:0.39495802"
       d="m 2.1166666,289.60822 c -0.2452753,0.55187 -0.2489788,1.24366 0.1116032,1.74738 0.4433527,0.25752 0.9768618,0.22448 1.454847,0.37567 0.4495105,0.11405 1.0862261,-0.0642 1.4164485,0.24105 0.048622,0.17914 -0.010427,0.74314 0.3029749,0.44629 0.1371681,0.35057 -0.071557,0.78036 0.1729172,1.09399 0.2690032,0.13613 0.6369379,-0.0563 0.7874895,0.31983 0.301067,0.11674 0.6734025,0.0454 1.0104533,0.0264 0.2834065,-0.0401 0.7222616,-0.0606 0.7979679,0.30062 -0.077939,0.46236 0.5072913,0.38075 0.8033469,0.39901 0.3141184,0.0451 0.5519523,0.31788 0.8890773,0.33675 0.2827047,0.0513 0.5266247,0.18956 0.7030197,0.41676"
       id="path820"
       inkscape:connector-curvature="0" />
    <path
       style="fill:none;stroke:#cbcbcb;stroke-width:0.26458333;stroke-linecap:round;stroke-linejoin:miter;stroke-opacity:0.39495799;stroke-miterlimit:4;stroke-dasharray:none"
       d="m 18.785416,289.65779 c -0.47742,0.46481 -0.813422,1.08259 -1.300004,1.50544 -0.700758,0.23149 -1.462017,0.0974 -2.179327,0.25503 -0.593783,0.24714 -1.38514,-0.10692 -1.843069,0.4317 -0.0806,0.51307 -0.114147,1.167 -0.855851,1.04313 -0.564987,0.0879 -1.118537,0.26555 -1.659099,0.442 -0.143167,0.0171 -0.287279,0.007 -0.430917,0.009"
       id="path826"
       inkscape:connector-curvature="0" />
    <path
       style="fill:none;stroke:#a9a9a9;stroke-width:0.29989153px;stroke-linecap:round;stroke-linejoin:miter;stroke-opacity:0.3739496"
       d="m 17.528646,296.25922 c 0.353245,-0.2258 -0.0947,-0.55025 -0.318018,-0.49807 -0.422993,-0.0807 -0.836436,0.11113 -1.257892,0.0878 -0.157499,-0.26355 -0.234853,-0.69728 -0.555986,-0.6902 -0.316667,-0.0312 -0.652464,0.10419 -0.949983,-0.10085 -0.12491,-0.11254 -0.328334,-0.11999 -0.357717,-0.30649"
       id="path831"
       inkscape:connector-curvature="0" />
    <path
       inkscape:connector-curvature="0"
       id="path836"
       d="m 2.3316411,289.49244 c -0.2452753,0.55187 -0.2489788,1.24366 0.1116032,1.74738 0.4433527,0.25752 0.9768618,0.22448 1.454847,0.37567 0.4495105,0.11405 1.0862261,-0.0642 1.4164485,0.24105 0.048622,0.17914 -0.010427,0.74314 0.3029749,0.44629 0.1371681,0.35057 -0.071557,0.78036 0.1729172,1.09399 0.2690032,0.13613 0.6369379,-0.0563 0.7874895,0.31983 0.301067,0.11674 0.6734025,0.0454 1.0104533,0.0264 0.2834065,-0.0401 0.7222616,-0.0606 0.7979679,0.30062 -0.077939,0.46236 0.5072913,0.38075 0.8033465,0.39901 0.3141182,0.0451 0.5519462,0.31788 0.8890709,0.33675 0.282705,0.0513 0.526625,0.18956 0.70302,0.41676"
       style="fill:none;stroke:#000000;stroke-width:0.26458332;stroke-linecap:round;stroke-linejoin:miter;stroke-miterlimit:4;stroke-dasharray:none;stroke-opacity:0.21611722" />
    <path
       inkscape:connector-curvature="0"
       id="path838"
       d="m 18.967327,289.82308 c -0.47742,0.46481 -0.813422,1.08259 -1.300004,1.50544 -0.700758,0.23149 -1.462017,0.0974 -2.179327,0.25503 -0.593783,0.24714 -1.38514,-0.10692 -1.843069,0.4317 -0.0806,0.51307 -0.114147,1.167 -0.855851,1.04313 -0.564987,0.0879 -1.118537,0.26555 -1.659099,0.442 -0.143167,0.0171 -0.287279,0.007 -0.430917,0.009"
       style="fill:none;stroke:#020202;stroke-width:0.26458332;stroke-linecap:round;stroke-linejoin:miter;stroke-miterlimit:4;stroke-dasharray:none;stroke-opacity:0.1978022" />
    <path
       inkscape:connector-curvature="0"
       id="path840"
       d="m 17.34675,296.47424 c 0.353245,-0.2258 -0.0947,-0.55025 -0.318018,-0.49807 -0.422993,-0.0807 -0.836436,0.11113 -1.257892,0.0878 -0.157499,-0.26355 -0.234853,-0.69728 -0.555986,-0.6902 -0.316667,-0.0312 -0.652464,0.10419 -0.949983,-0.10085 -0.12491,-0.11254 -0.328334,-0.11999 -0.357717,-0.30649"
       style="fill:none;stroke:#050505;stroke-width:0.29989153px;stroke-linecap:round;stroke-linejoin:miter;stroke-opacity:0.37394959" />
  </g>
</svg>
